<svg version="1.1" xmlns="http://www.w3.org/2000/svg" xmlns:xlink="http://www.w3.org/1999/xlink" width="347.36885" height="205.56704" viewBox="0,0,347.36885,205.56704"><g transform="translate(-64.94895,-74.94895)"><g stroke-miterlimit="10"><path d="M72.28796,254.29336v-172.50647h169.99424v172.50647z" fill-opacity="0.61961" fill="#000000" stroke="none" stroke-width="0" stroke-linecap="butt"/><path d="M194.93795,166.94002c4.58214,-0.00075 12.59853,0.0127 12.59853,0.0127l15.20598,17.67233l27.80156,0.03237l17.18873,-18.24172c0,0 105.93215,0.42639 132.25512,0.422c6.57049,-0.00109 12.31681,5.96154 12.31775,11.59535c0.00189,11.41824 0.00888,53.24061 0.01218,73.07387c0.00114,6.80938 -4.68363,10.57185 -11.493,10.57299c-25.85688,0.0043 -133.35889,-0.43661 -133.35889,-0.43661l-19.36908,18.87269l-22.87525,-0.03319l-15.48827,-15.22393c0,0 -10.07704,0.00167 -14.77898,0.00246c-7.25949,0.00121 -12.31658,-4.54112 -12.31778,-11.80061c-0.0034,-20.38444 -0.01018,-61.15132 -0.01216,-73.07387c-0.00107,-6.41143 7.73144,-13.44606 12.31358,-13.44683z" fill-opacity="0.52157" fill="#000000" stroke="none" stroke-width="0" stroke-linecap="round"/><g><path d="M187.24569,158.27125c4.58214,-0.00077 12.59853,0.0127 12.59853,0.0127l15.20598,17.67235l27.80156,0.03237l17.18873,-18.24172c0,0 105.93214,0.42638 132.25512,0.42199c6.57049,-0.00109 12.31681,5.96154 12.31775,11.59535c0.00191,11.41824 0.00886,53.24061 0.01218,73.07387c0.00114,6.80937 -4.68363,10.57185 -11.493,10.57299c-25.85688,0.0043 -133.35887,-0.43661 -133.35887,-0.43661l-19.36908,18.87268l-22.87525,-0.03319l-15.48827,-15.22393c0,0 -10.07704,0.00167 -14.77898,0.00246c-7.25949,0.00121 -12.31658,-4.54112 -12.31778,-11.8006c-0.0034,-20.38444 -0.01018,-61.15132 -0.01218,-73.07387c-0.00107,-6.41143 7.73146,-13.44606 12.31358,-13.44683z" fill="#00d607" stroke="#0f8600" stroke-width="2.5" stroke-linecap="round"/><text transform="translate(273.69677,226.33372) rotate(0.46028) scale(1.8138,1.8138)" font-size="40" xml:space="preserve" fill="#b9fac0" stroke="#b9fac0" stroke-width="1" stroke-linecap="butt" font-family="&quot;Arial &quot;, Sans Serif" font-weight="normal" text-anchor="start"><tspan x="0" dy="0">Ify</tspan></text></g><path d="M64.94895,244.33367v-169.38472h169.38472v169.38472z" fill="#e6db00" stroke="#9faf00" stroke-width="0" stroke-linecap="butt"/><text transform="translate(114.50597,216.5794) scale(2.48846,2.48846)" font-size="40" xml:space="preserve" fill="#000000" stroke="#000000" stroke-width="1" stroke-linecap="butt" font-family="Arial" font-weight="normal" text-anchor="start"><tspan x="0" dy="0">JS</tspan></text></g></g></svg>